<svg xmlns="http://www.w3.org/2000/svg" xmlns:cc="http://web.resource.org/cc/" xmlns:svg="http://www.w3.org/2000/svg" xmlns:xlink="http://www.w3.org/1999/xlink" id="svg2" width="22" height="22" version="1.0"><defs id="defs4"><linearGradient id="linearGradient2975"><stop style="stop-color:#813305;stop-opacity:0" id="stop2977" offset="0"/><stop style="stop-color:#843505;stop-opacity:1" id="stop2979" offset="1"/></linearGradient><linearGradient id="linearGradient2409"><stop id="stop2411" offset="0" style="stop-color:#3e4749;stop-opacity:1"/><stop id="stop2413" offset="1" style="stop-color:#2e3436;stop-opacity:0"/></linearGradient><linearGradient id="linearGradient2330"><stop style="stop-color:#d3d7cf;stop-opacity:1" id="stop2332" offset="0"/><stop style="stop-color:#d3d7cf;stop-opacity:0" id="stop2334" offset="1"/></linearGradient><linearGradient id="linearGradient2254"><stop style="stop-color:#8c4104;stop-opacity:1" id="stop2256" offset="0"/><stop style="stop-color:#a04e0b;stop-opacity:0" id="stop2258" offset="1"/></linearGradient><linearGradient id="linearGradient2246"><stop style="stop-color:#fff;stop-opacity:1" id="stop2248" offset="0"/><stop style="stop-color:#fff;stop-opacity:0" id="stop2250" offset="1"/></linearGradient><linearGradient id="linearGradient2207"><stop style="stop-color:#fff;stop-opacity:1" id="stop2209" offset="0"/><stop style="stop-color:white;stop-opacity:.58174902" id="stop2211" offset="1"/></linearGradient><linearGradient id="linearGradient2193"><stop style="stop-color:#7c2f03;stop-opacity:1" id="stop2195" offset="0"/><stop style="stop-color:#ff9730;stop-opacity:1" id="stop2197" offset="1"/></linearGradient><linearGradient id="linearGradient3256"><stop id="stop3258" offset="0" style="stop-color:#000;stop-opacity:1"/><stop id="stop3260" offset="1" style="stop-color:#000;stop-opacity:0"/></linearGradient><linearGradient id="linearGradient3146" x1="27.624" x2="18.191" y1="31.545" y2="21.526" gradientTransform="matrix(0.400193,0,0,0.42054,2.31765,1.48278)" gradientUnits="userSpaceOnUse" xlink:href="#linearGradient2409"/><linearGradient id="linearGradient3151" x1="32.72" x2="20.753" y1="29.389" y2="14.95" gradientTransform="matrix(0.400193,0,0,0.42054,2.31765,1.48278)" gradientUnits="userSpaceOnUse" xlink:href="#linearGradient2330"/><radialGradient id="radialGradient3159" cx="25.456" cy="39.161" r="19.622" fx="25.456" fy="39.161" gradientTransform="matrix(1,0,0,0.315315,0,26.81305)" gradientUnits="userSpaceOnUse" xlink:href="#linearGradient3256"/><radialGradient id="radialGradient3161" cx="2.211" cy="9.609" r="12.333" fx="1.669" fy="8.871" gradientTransform="matrix(-1.406852,-2.719337e-2,-2.615301e-2,1.353029,28.40827,13.10321)" gradientUnits="userSpaceOnUse" xlink:href="#linearGradient2193"/><linearGradient id="linearGradient3163" x1="9.088" x2="33.758" y1="-1.143" y2="41.134" gradientTransform="matrix(0.941299,0,0,0.95119,1.512638,1.012529)" gradientUnits="userSpaceOnUse" xlink:href="#linearGradient2207"/><linearGradient id="linearGradient3165" x1="35.543" x2="25.339" y1="11.797" y2="25.988" gradientUnits="userSpaceOnUse" xlink:href="#linearGradient2254"/><linearGradient id="linearGradient3167" x1="27.499" x2="21.067" y1="19.154" y2="-3.195" gradientUnits="userSpaceOnUse" xlink:href="#linearGradient2246"/><radialGradient id="radialGradient2981" cx="15.233" cy="12.766" r="6.002" fx="17.122" fy="10.272" gradientTransform="matrix(0.822467,6.304881e-2,-5.361952e-2,0.699463,3.236001,4.693824)" gradientUnits="userSpaceOnUse" xlink:href="#linearGradient2975"/></defs><metadata id="metadata7"/><g id="layer2" style="display:inline"><path style="opacity:.22352941;color:#000;fill:url(#radialGradient3159);fill-opacity:1;fill-rule:nonzero;stroke:none;stroke-width:1;stroke-linecap:butt;stroke-linejoin:miter;marker:none;marker-start:none;marker-mid:none;marker-end:none;stroke-miterlimit:4;stroke-dasharray:none;stroke-dashoffset:0;stroke-opacity:1;visibility:visible;display:inline;overflow:visible" id="path3254" d="M 45.078058 39.161163 A 19.622213 6.1871843 0 1 1 5.8336315,39.161163 A 19.622213 6.1871843 0 1 1 45.078058 39.161163 z" transform="matrix(0.484146,0,0,0.404061,0.175672,3.676492)"/><g style="display:inline" id="g2375" transform="matrix(0.410688,0,0,0.417568,1.341013,2.228454)"><path id="path1314" d="M 24.787817,27.032907 C 24.549872,27.708572 25.431487,28.808219 26.113192,29.177911 C 27.517319,29.939375 29.039331,28.85947 29.483584,27.37506 C 30.275695,24.728336 28.630725,20.925794 25.196628,19.997404 C 20.658201,18.770466 16.293739,22.780163 15.200549,26.821368 C 13.53433,32.980896 18.897773,39.380288 25.045731,40.922666 C 34.259588,43.234208 44.07197,36.08996 46.110607,27.45726 C 49.041008,15.048352 38.466478,3.253309 26.28729,1.017909 C 17.470211,-0.60040077 7.180622,2.1474467 0.38712155,8.0646418 C 1.387121,18.064642 7.1399301,23.048548 14.63993,27.048548" style="fill:url(#radialGradient3161);fill-opacity:1;fill-rule:nonzero;stroke:#582a02;stroke-width:2.41478944;stroke-linecap:round;stroke-linejoin:miter;stroke-miterlimit:4;stroke-dasharray:none;stroke-opacity:1"/><path id="path2215" d="M 27.106755,26.930304 C 27.521451,26.323047 27.0758,23.479509 25.258867,22.663158 C 21.867506,21.139414 17.608364,24.484009 17.274339,29.192029 C 16.974557,33.417414 21.558174,37.945218 26.568712,38.768247 C 34.476562,40.067187 41.686261,33.814173 43.343658,28.352108 C 46.575151,17.702501 39.084929,6.8489389 26.82534,3.6356789 C 19.723354,1.7742358 10.023672,3.4226957 2.9496776,8.9802883 C 4.2403324,17.097254 7.5737296,20.062424 13.837009,23.927976" style="opacity:.59019608;fill:none;fill-opacity:1;fill-rule:nonzero;stroke:url(#linearGradient3163);stroke-width:2.41478944;stroke-linecap:round;stroke-linejoin:miter;stroke-miterlimit:4;stroke-dasharray:none;stroke-opacity:1"/><path style="fill:url(#linearGradient3165);fill-opacity:1;fill-rule:evenodd;stroke:none;stroke-width:.25pt;stroke-linecap:butt;stroke-linejoin:miter;stroke-opacity:1" id="path2225" d="M 21.488562,4.9189327 C 23.303222,9.5533979 24.407867,13.717965 22.593207,19.279323 C 23.758542,19.887597 26.585059,20.88034 27.011787,21.488614 C 28.116432,12.651451 25.907142,7.1282236 21.488562,4.9189327 z M 12.651401,6.0235781 C 15.651401,9.5235787 18.282349,14.606675 18.174626,20.383969 C 19.556205,20.04625 21.329819,18.789708 22.593207,19.279323 C 22.093207,12.279323 19.279271,6.0235781 12.651401,6.0235781 z M 30.325722,8.232869 C 29.97011,14.418387 29.280112,17.958795 27.011787,22.59326 C 27.541093,23.511065 28.335003,24.880248 28.116432,25.907196 C 28.076456,26.080422 27.447889,26.098661 27.34375,26.28125 C 27.337747,26.291426 27.318723,26.302292 27.3125,26.3125 L 26.625,28.34375 C 26.595284,28.355173 26.55892,28.390215 26.53125,28.40625 C 26.51735,28.414116 26.483164,28.430809 26.46875,28.4375 L 24.65625,29.84375 C 28.285569,30.307197 38.452868,24.840681 40.267528,19.279323 C 36.588852,22.132063 32.576893,25.493118 28.71875,27.0625 C 31.440739,25.295611 37.407258,19.139702 36.953593,12.651451 C 34.454039,17.336587 31.166075,22.213825 28.21875,25.21875 C 30.543783,21.482212 34.862372,15.648013 30.325722,8.232869 z" transform="matrix(1.102135,0,0,1.078873,-0.163946,-2.184653)"/><path id="path2234" d="M 20.010566,1.9567623 C 13.117208,2.2228349 7.094361,4.1999141 1.9992356,8.6378104 C 1.9605843,11.309646 3.5264918,16.617259 7.4480987,20.471615 C 18.948099,23.471615 19.17798,-1.5340571 42.67798,14.965943 C 39.17798,8.4659429 35.404576,4.820534 27.904576,2.820534 C 25.694597,2.2312063 22.308352,1.8680714 20.010566,1.9567623 z" style="opacity:.65098039;fill:url(#linearGradient3167);fill-opacity:1;fill-rule:nonzero;stroke:none;stroke-width:.99999962pt;stroke-linecap:butt;stroke-linejoin:miter;stroke-opacity:1"/></g><path style="opacity:.6;fill:url(#radialGradient2981);fill-opacity:1;fill-rule:evenodd;stroke:none;stroke-width:1px;stroke-linecap:butt;stroke-linejoin:miter;stroke-opacity:1" id="path2965" d="M 7.953125,14.979927 C 10.133019,19.135431 18.262976,16.789581 19.955357,12.000016 C 20.037548,15.631067 16.929515,18.994082 13.013408,18.988035 C 10.871467,18.984746 8.5324737,17.641312 7.953125,14.979927 z"/></g></svg>